<svg width="60" height="60" viewBox="0 0 60 60" fill="none" xmlns="http://www.w3.org/2000/svg">
<path d="M8.90625 28.125C10.3244 28.125 11.608 27.556 12.5565 26.6423L17.7599 29.2438C17.7338 29.4557 17.6953 29.664 17.6953 29.8828C17.6953 32.7905 20.061 35.1562 22.9688 35.1562C25.8765 35.1562 28.2422 32.7905 28.2422 29.8828C28.2422 29.0712 28.0426 28.3113 27.7135 27.6237L34.7722 20.565C35.4597 20.8942 36.2196 21.0938 37.0312 21.0938C39.939 21.0938 42.3047 18.728 42.3047 15.8203C42.3047 15.2728 42.1971 14.7551 42.0415 14.2584L48.1746 9.65973C49.0114 10.2187 50.0143 10.5469 51.0938 10.5469C54.0015 10.5469 56.3672 8.18115 56.3672 5.27344C56.3672 2.36572 54.0015 0 51.0938 0C48.186 0 45.8203 2.36572 45.8203 5.27344C45.8203 5.82092 45.9279 6.33865 46.0835 6.83533L39.9504 11.434C39.1136 10.8751 38.1107 10.5469 37.0312 10.5469C34.1235 10.5469 31.7578 12.9126 31.7578 15.8203C31.7578 16.6319 31.9574 17.3918 32.2865 18.0794L25.2278 25.1381C24.5403 24.809 23.7804 24.6094 22.9688 24.6094C21.5506 24.6094 20.267 25.1784 19.3185 26.0921L14.1151 23.4906C14.1412 23.2787 14.1797 23.0704 14.1797 22.8516C14.1797 19.9438 11.814 17.5781 8.90625 17.5781C5.99854 17.5781 3.63281 19.9438 3.63281 22.8516C3.63281 25.7593 5.99854 28.125 8.90625 28.125Z" fill="url(#paint0_linear)"/>
<path d="M58.2422 56.4844H56.3672V19.3359C56.3672 18.3646 55.5807 17.5781 54.6094 17.5781H47.5781C46.6068 17.5781 45.8203 18.3646 45.8203 19.3359V56.4844H42.3047V29.8828C42.3047 28.9114 41.5182 28.125 40.5469 28.125H33.5156C32.5443 28.125 31.7578 28.9114 31.7578 29.8828V56.4844H28.2422V43.9453C28.2422 42.9739 27.4557 42.1875 26.4844 42.1875H19.4531C18.4818 42.1875 17.6953 42.9739 17.6953 43.9453V56.4844H14.1797V36.9141C14.1797 35.9427 13.3932 35.1562 12.4219 35.1562H5.39062C4.41925 35.1562 3.63281 35.9427 3.63281 36.9141V56.4844H1.75781C0.786438 56.4844 0 57.2708 0 58.2422C0 59.2136 0.786438 60 1.75781 60H58.2422C59.2136 60 60 59.2136 60 58.2422C60 57.2708 59.2136 56.4844 58.2422 56.4844Z" fill="url(#paint1_linear)"/>
<defs>
<linearGradient id="paint0_linear" x1="30" y1="0" x2="30" y2="35.1562" gradientUnits="userSpaceOnUse">
<stop stop-color="#00BE99"/>
<stop offset="1" stop-color="#39FE89"/>
</linearGradient>
<linearGradient id="paint1_linear" x1="30" y1="17.5781" x2="30" y2="60" gradientUnits="userSpaceOnUse">
<stop stop-color="#00BE99"/>
<stop offset="1" stop-color="#39FE89"/>
</linearGradient>
</defs>
</svg>
