<svg width="64" height="64" viewBox="0 0 64 64" fill="none" xmlns="http://www.w3.org/2000/svg">
<g clip-path="url(#clip0)">
<path d="M56.6666 64H9.99996C5.95463 64 2.66663 60.712 2.66663 56.6667V7.33333C2.66663 3.288 5.95463 0 9.99996 0H51.3333C52.4373 0 53.3333 0.896 53.3333 2V10.6667H56.6666C57.7706 10.6667 58.6666 11.5627 58.6666 12.6667V62C58.6666 63.104 57.7706 64 56.6666 64ZM6.66663 13.864V56.6667C6.66663 58.504 8.16263 60 9.99996 60H54.6666V14.6667H9.99996C8.79996 14.6667 7.66663 14.3787 6.66663 13.864ZM9.99996 4C8.16263 4 6.66663 5.496 6.66663 7.33333C6.66663 9.17067 8.16263 10.6667 9.99996 10.6667H49.3333V4H9.99996Z" fill="url(#paint0_linear)"/>
<path d="M22.6666 46.0001C22.2133 46.0001 21.76 45.8481 21.3866 45.5361L13.3866 38.8694C12.9306 38.4908 12.6666 37.9281 12.6666 37.3334C12.6666 36.7388 12.9306 36.1761 13.3866 35.7974L21.3866 29.1308C22.232 28.4241 23.496 28.5334 24.2053 29.3868C24.9146 30.2348 24.8 31.4961 23.9493 32.2028L17.792 37.3334L23.9493 42.4641C24.7973 43.1708 24.912 44.4321 24.2053 45.2801C23.808 45.7548 23.24 46.0001 22.6666 46.0001Z" fill="url(#paint1_linear)"/>
<path d="M38.6667 46.0001C38.0934 46.0001 37.5254 45.7548 37.1307 45.2801C36.4214 44.4321 36.5361 43.1708 37.3867 42.4641L43.5414 37.3334L37.3841 32.2028C36.5361 31.4961 36.4214 30.2348 37.1281 29.3868C37.8374 28.5334 39.0934 28.4241 39.9467 29.1308L47.9467 35.7974C48.4027 36.1788 48.6667 36.7414 48.6667 37.3334C48.6667 37.9254 48.4027 38.4908 47.9467 38.8694L39.9467 45.5361C39.5734 45.8481 39.1201 46.0001 38.6667 46.0001Z" fill="url(#paint2_linear)"/>
<path d="M27.9999 48.6667C27.8213 48.6667 27.6346 48.6427 27.4506 48.5894C26.3893 48.2854 25.7733 47.1787 26.0773 46.1174L31.4106 27.4507C31.7119 26.3921 32.7999 25.7707 33.8826 26.0774C34.9439 26.3814 35.5599 27.4881 35.2559 28.5494L29.9226 47.2161C29.6719 48.0961 28.8719 48.6667 27.9999 48.6667Z" fill="url(#paint3_linear)"/>
</g>
<defs>
<linearGradient id="paint0_linear" x1="30.6666" y1="0" x2="30.6666" y2="64" gradientUnits="userSpaceOnUse">
<stop stop-color="#00BE99"/>
<stop offset="1" stop-color="#39FE89"/>
</linearGradient>
<linearGradient id="paint1_linear" x1="18.6686" y1="28.6658" x2="18.6686" y2="46.0001" gradientUnits="userSpaceOnUse">
<stop stop-color="#00BE99"/>
<stop offset="1" stop-color="#39FE89"/>
</linearGradient>
<linearGradient id="paint2_linear" x1="42.6658" y1="28.6658" x2="42.6658" y2="46.0001" gradientUnits="userSpaceOnUse">
<stop stop-color="#00BE99"/>
<stop offset="1" stop-color="#39FE89"/>
</linearGradient>
<linearGradient id="paint3_linear" x1="30.6666" y1="25.999" x2="30.6666" y2="48.6667" gradientUnits="userSpaceOnUse">
<stop stop-color="#00BE99"/>
<stop offset="1" stop-color="#39FE89"/>
</linearGradient>
<clipPath id="clip0">
<rect width="64" height="64" fill="white"/>
</clipPath>
</defs>
</svg>
