<svg width="68" height="68" viewBox="0 0 68 68" fill="none" xmlns="http://www.w3.org/2000/svg">
<g clip-path="url(#clip0)">
<path d="M1.13768 63.4684H4.53745V66.8681C4.53745 67.494 5.04486 68.0014 5.6707 68.0014H53.2674C53.8932 68.0014 54.4006 67.494 54.4006 66.8681V62.3351H52.1341V65.7349H6.80395V63.4684H32.8688V61.2019H2.27094V12.4719H11.337C11.9628 12.4719 12.4702 11.9645 12.4702 11.3386V2.27261H47.6011V23.8045H49.8676V6.80563H52.1341V26.071H54.4006V5.67238C54.4006 5.04654 53.8932 4.53912 53.2674 4.53912H49.8676V1.13936C49.8676 0.513523 49.3602 0.00610352 48.7344 0.00610352H11.337C11.3143 0.00610352 11.2938 0.0177238 11.2711 0.0199372C11.1682 0.0249174 11.0664 0.0453912 10.969 0.0796986C10.9352 0.0896589 10.9026 0.101833 10.8699 0.115113C10.746 0.169341 10.6326 0.246256 10.5357 0.341432L0.336435 10.5407C0.241813 10.637 0.164897 10.7499 0.110116 10.8733C0.0940689 10.9081 0.0852154 10.9436 0.0724885 10.9795C0.039841 11.0736 0.0204738 11.1715 0.0149404 11.2706C0.0149404 11.2955 0 11.3171 0 11.342V62.3351C0 62.6367 0.120076 62.9255 0.333668 63.138C0.54726 63.3511 0.836661 63.4695 1.13768 63.4684ZM10.2037 3.87511V10.2054H3.87343L10.2037 3.87511Z" fill="url(#paint0_linear)"/>
<path d="M35.1354 24.9361V23.8029H44.2014V18.1366C44.1992 16.3775 42.8546 14.9106 41.1021 14.7551C41.0025 14.7424 40.9024 14.7363 40.8017 14.7369H9.07054C7.19303 14.7369 5.67078 16.2591 5.67078 18.1366V54.4008C5.67078 56.2788 7.19303 57.8005 9.07054 57.8005H26.0694V55.534H14.7368V52.1343H23.8029V49.8677H14.7368V46.468H22.6696V44.2015H14.7368V40.8017H22.8965V38.5352H14.7368V35.1354H24.9361V32.8689H14.7368V29.4692H29.4691V27.2027H14.7368V23.8029H32.8689V24.9361H35.1354ZM40.8946 17.0117C41.4823 17.0565 41.936 17.5473 41.9349 18.1366V21.5364H35.1354V16.9956H40.7541C40.8006 17.0039 40.8476 17.0089 40.8946 17.0117ZM9.07054 17.0034H12.4703V21.5364H7.93729V18.1366C7.93729 17.5108 8.4447 17.0034 9.07054 17.0034ZM12.4703 55.534H9.07054C8.4447 55.534 7.93729 55.0266 7.93729 54.4008V52.1343H12.4703V55.534ZM12.4703 49.8677H7.93729V46.468H12.4703V49.8677ZM12.4703 44.2015H7.93729V40.8017H12.4703V44.2015ZM12.4703 38.5352H7.93729V35.1354H12.4703V38.5352ZM12.4703 32.8689H7.93729V29.4692H12.4703V32.8689ZM12.4703 27.2027H7.93729V23.8029H12.4703V27.2027ZM14.7368 21.5364V17.0034L32.8689 16.9978V21.5364H14.7368Z" fill="url(#paint1_linear)"/>
<path d="M17.0032 10.2039H26.0692V12.4704H17.0032V10.2039Z" fill="url(#paint2_linear)"/>
<path d="M28.3358 10.2039H32.8688V12.4704H28.3358V10.2039Z" fill="url(#paint3_linear)"/>
<path d="M17.0032 5.6709H32.8687V7.93741H17.0032V5.6709Z" fill="url(#paint4_linear)"/>
<path d="M58.6016 53.5997L58.4566 53.7446C63.4151 45.7748 61.5017 35.3414 54.0376 29.6497C46.5735 23.9574 36.0056 24.8732 29.6316 31.764C23.2576 38.6549 23.1669 49.262 29.4225 56.2602C35.6781 63.2589 46.2287 64.3551 53.7886 58.7912L61.9615 66.9641C63.3432 68.3458 65.5826 68.3458 66.9638 66.9641C68.3455 65.583 68.3455 63.3436 66.9638 61.9624L58.6016 53.5997ZM27.2024 44.2016C27.2024 35.4394 34.3058 28.336 43.068 28.336C51.8303 28.336 58.9336 35.4394 58.9336 44.2016C58.9336 52.9639 51.8303 60.0672 43.068 60.0672C34.3096 60.0578 27.2118 52.96 27.2024 44.2016ZM64.4626 65.7335C64.1256 65.7346 63.8025 65.6007 63.564 65.3622L55.5338 57.3326C56.1508 56.7493 56.7257 56.1235 57.2553 55.4595L65.3602 63.5644C65.7237 63.9279 65.8327 64.4741 65.6363 64.9488C65.4398 65.4236 64.9767 65.7335 64.4626 65.7335Z" fill="url(#paint5_linear)"/>
<path d="M43.0681 30.6023C35.5575 30.6023 29.469 36.6908 29.469 44.2013C29.469 51.7119 35.5575 57.8004 43.0681 57.8004C50.5786 57.8004 56.6671 51.7119 56.6671 44.2013C56.6594 36.6941 50.5753 30.6106 43.0681 30.6023ZM38.535 44.2013C38.535 41.698 40.5647 39.6683 43.0681 39.6683C45.5719 39.6683 47.6011 41.698 47.6011 44.2013C47.6011 46.7052 45.5719 48.7344 43.0681 48.7344C40.5647 48.7344 38.535 46.7052 38.535 44.2013ZM37.217 47.6476C35.2708 46.9017 33.5189 45.7236 32.0946 44.2013C33.5189 42.6796 35.2708 41.501 37.217 40.7551C35.9526 42.8788 35.9526 45.5244 37.217 47.6476ZM48.9191 40.7551C50.8658 41.501 52.6172 42.6796 54.0415 44.2013C52.6172 45.7236 50.8658 46.9017 48.9191 47.6476C50.1835 45.5244 50.1835 42.8788 48.9191 40.7551ZM43.0681 32.8688C48.1079 32.8749 52.5391 36.2055 53.9474 41.0445C51.0279 38.7874 47.4622 37.5236 43.773 37.4383C43.3065 37.3896 42.8368 37.3896 42.3703 37.4383C38.6783 37.5225 35.1104 38.7857 32.1887 41.0445C33.597 36.2055 38.0287 32.8749 43.0681 32.8688ZM43.0681 55.5339C38.0287 55.5278 33.597 52.1978 32.1887 47.3587C35.1087 49.6158 38.6739 50.8791 42.3631 50.9649C42.8296 51.013 43.2999 51.013 43.7664 50.9649C47.4578 50.8808 51.0257 49.617 53.9474 47.3587C52.5391 52.1978 48.1079 55.5278 43.0681 55.5339Z" fill="url(#paint6_linear)"/>
<path d="M45.3347 44.2016C45.3347 45.4532 44.3198 46.4681 43.0681 46.4681C41.8165 46.4681 40.8016 45.4532 40.8016 44.2016C40.8016 42.9499 41.8165 41.9351 43.0681 41.9351C44.3198 41.9351 45.3347 42.9499 45.3347 44.2016Z" fill="url(#paint7_linear)"/>
</g>
<defs>
<linearGradient id="paint0_linear" x1="27.2003" y1="0.00610352" x2="27.2003" y2="68.0014" gradientUnits="userSpaceOnUse">
<stop stop-color="#00BE99"/>
<stop offset="1" stop-color="#39FE89"/>
</linearGradient>
<linearGradient id="paint1_linear" x1="24.9361" y1="14.7368" x2="24.9361" y2="57.8005" gradientUnits="userSpaceOnUse">
<stop stop-color="#00BE99"/>
<stop offset="1" stop-color="#39FE89"/>
</linearGradient>
<linearGradient id="paint2_linear" x1="21.5362" y1="10.2039" x2="21.5362" y2="12.4704" gradientUnits="userSpaceOnUse">
<stop stop-color="#00BE99"/>
<stop offset="1" stop-color="#39FE89"/>
</linearGradient>
<linearGradient id="paint3_linear" x1="30.6023" y1="10.2039" x2="30.6023" y2="12.4704" gradientUnits="userSpaceOnUse">
<stop stop-color="#00BE99"/>
<stop offset="1" stop-color="#39FE89"/>
</linearGradient>
<linearGradient id="paint4_linear" x1="24.936" y1="5.6709" x2="24.936" y2="7.93741" gradientUnits="userSpaceOnUse">
<stop stop-color="#00BE99"/>
<stop offset="1" stop-color="#39FE89"/>
</linearGradient>
<linearGradient id="paint5_linear" x1="46.3952" y1="25.9199" x2="46.3952" y2="68.0004" gradientUnits="userSpaceOnUse">
<stop stop-color="#00BE99"/>
<stop offset="1" stop-color="#39FE89"/>
</linearGradient>
<linearGradient id="paint6_linear" x1="43.0681" y1="30.6023" x2="43.0681" y2="57.8004" gradientUnits="userSpaceOnUse">
<stop stop-color="#00BE99"/>
<stop offset="1" stop-color="#39FE89"/>
</linearGradient>
<linearGradient id="paint7_linear" x1="43.0681" y1="41.9351" x2="43.0681" y2="46.4681" gradientUnits="userSpaceOnUse">
<stop stop-color="#00BE99"/>
<stop offset="1" stop-color="#39FE89"/>
</linearGradient>
<clipPath id="clip0">
<rect width="68" height="68" fill="white"/>
</clipPath>
</defs>
</svg>
